<svg xmlns="http://www.w3.org/2000/svg" viewBox="0 0 32 32">
  <defs>
    <linearGradient id="g" x1="0" y1="0" x2="1" y2="1">
      <stop offset="0%" stop-color="#4F46E5"/>
      <stop offset="50%" stop-color="#7C3AED"/>
      <stop offset="100%" stop-color="#06B6D4"/>
    </linearGradient>
  </defs>
  <rect width="32" height="32" rx="7" fill="url(#g)"/>
  <path d="M21 12.2c0-1.7-1.3-2.7-3.3-2.7h-4.5c-1.7 0-2.7 1-2.7 2.4 0 1.5 1 2.2 2.6 2.5l2.8.4c.9.2 1.2.5 1.2 1 0 .6-.5.9-1.4.9-1.1 0-1.6-.4-1.7-1.3H10.5c.1 2.1 1.6 3.3 4.2 3.3 2.5 0 4.3-1.1 4.3-3 0-1.4-.8-2.2-2.6-2.5l-2.7-.4c-1-.2-1.3-.5-1.3-1 0-.6.5-.9 1.3-.9 1 0 1.5.4 1.6 1.2H21z" fill="white"/>
</svg>
